<mxfile host="app.diagrams.net" agent="Mozilla/5.0 (Windows NT 10.0; Win64; x64; rv:134.0) Gecko/20100101 Firefox/134.0" version="26.0.10">
  <diagram name="Page-1" id="fbr_ZRW4jXHWXxSyyG7u">
    <mxGraphModel dx="1927" dy="588" grid="0" gridSize="10" guides="1" tooltips="1" connect="1" arrows="1" fold="1" page="1" pageScale="1" pageWidth="827" pageHeight="1169" math="0" shadow="0">
      <root>
        <mxCell id="0" />
        <mxCell id="1" parent="0" />
        <mxCell id="jzL99hfYgjQj-h_XM-RX-25" value="Application Load Balancer" style="sketch=0;outlineConnect=0;fontColor=#232F3E;gradientColor=none;strokeColor=#ffffff;fillColor=#232F3E;dashed=0;verticalLabelPosition=middle;verticalAlign=bottom;align=center;html=1;whiteSpace=wrap;fontSize=10;fontStyle=1;spacing=3;shape=mxgraph.aws4.productIcon;prIcon=mxgraph.aws4.application_load_balancer;" vertex="1" parent="1">
          <mxGeometry x="519" y="25" width="77" height="104" as="geometry" />
        </mxCell>
        <mxCell id="jzL99hfYgjQj-h_XM-RX-26" value="AWS WAF" style="sketch=0;outlineConnect=0;fontColor=#232F3E;gradientColor=none;strokeColor=#ffffff;fillColor=#232F3E;dashed=0;verticalLabelPosition=middle;verticalAlign=bottom;align=center;html=1;whiteSpace=wrap;fontSize=10;fontStyle=1;spacing=3;shape=mxgraph.aws4.productIcon;prIcon=mxgraph.aws4.waf;" vertex="1" parent="1">
          <mxGeometry x="337" y="27" width="80" height="100" as="geometry" />
        </mxCell>
        <mxCell id="jzL99hfYgjQj-h_XM-RX-27" value="" style="shape=actor;whiteSpace=wrap;html=1;" vertex="1" parent="1">
          <mxGeometry x="115" y="31" width="40" height="60" as="geometry" />
        </mxCell>
        <mxCell id="jzL99hfYgjQj-h_XM-RX-28" value="" style="sketch=0;points=[[0,0,0],[0.25,0,0],[0.5,0,0],[0.75,0,0],[1,0,0],[0,1,0],[0.25,1,0],[0.5,1,0],[0.75,1,0],[1,1,0],[0,0.25,0],[0,0.5,0],[0,0.75,0],[1,0.25,0],[1,0.5,0],[1,0.75,0]];outlineConnect=0;fontColor=#232F3E;fillColor=#8C4FFF;strokeColor=#ffffff;dashed=0;verticalLabelPosition=bottom;verticalAlign=top;align=center;html=1;fontSize=12;fontStyle=0;aspect=fixed;shape=mxgraph.aws4.resourceIcon;resIcon=mxgraph.aws4.route_53;" vertex="1" parent="1">
          <mxGeometry x="10" y="47" width="49" height="49" as="geometry" />
        </mxCell>
        <mxCell id="jzL99hfYgjQj-h_XM-RX-29" value="" style="endArrow=classic;html=1;rounded=0;endSize=6;strokeWidth=2;" edge="1" parent="1">
          <mxGeometry width="50" height="50" relative="1" as="geometry">
            <mxPoint x="169" y="67" as="sourcePoint" />
            <mxPoint x="334" y="69" as="targetPoint" />
          </mxGeometry>
        </mxCell>
        <mxCell id="jzL99hfYgjQj-h_XM-RX-30" value="" style="endArrow=classic;html=1;rounded=0;endSize=6;strokeWidth=2;" edge="1" parent="1">
          <mxGeometry width="50" height="50" relative="1" as="geometry">
            <mxPoint x="432" y="71.5" as="sourcePoint" />
            <mxPoint x="504" y="71.5" as="targetPoint" />
            <Array as="points">
              <mxPoint x="487" y="71.5" />
            </Array>
          </mxGeometry>
        </mxCell>
        <mxCell id="jzL99hfYgjQj-h_XM-RX-33" value="" style="endArrow=classic;html=1;rounded=0;endSize=6;strokeWidth=2;" edge="1" parent="1">
          <mxGeometry width="50" height="50" relative="1" as="geometry">
            <mxPoint x="601" y="100" as="sourcePoint" />
            <mxPoint x="689" y="177" as="targetPoint" />
          </mxGeometry>
        </mxCell>
        <mxCell id="jzL99hfYgjQj-h_XM-RX-34" value="" style="endArrow=classic;html=1;rounded=0;endSize=6;strokeWidth=2;" edge="1" parent="1">
          <mxGeometry width="50" height="50" relative="1" as="geometry">
            <mxPoint x="514" y="105" as="sourcePoint" />
            <mxPoint x="353" y="172" as="targetPoint" />
          </mxGeometry>
        </mxCell>
        <mxCell id="jzL99hfYgjQj-h_XM-RX-35" value="" style="endArrow=classic;startArrow=classic;html=1;rounded=0;strokeWidth=2;entryX=0.1;entryY=0.5;entryDx=0;entryDy=0;entryPerimeter=0;exitX=1;exitY=0.25;exitDx=0;exitDy=0;exitPerimeter=0;" edge="1" parent="1" source="jzL99hfYgjQj-h_XM-RX-28" target="jzL99hfYgjQj-h_XM-RX-27">
          <mxGeometry width="50" height="50" relative="1" as="geometry">
            <mxPoint x="129" y="32" as="sourcePoint" />
            <mxPoint x="165" y="52" as="targetPoint" />
          </mxGeometry>
        </mxCell>
        <mxCell id="jzL99hfYgjQj-h_XM-RX-63" value="Availability zone B" style="sketch=0;outlineConnect=0;gradientColor=none;html=1;whiteSpace=wrap;fontSize=12;fontStyle=0;shape=mxgraph.aws4.group;grIcon=mxgraph.aws4.group_availability_zone;strokeColor=#545B64;fillColor=none;verticalAlign=top;align=left;spacingLeft=30;fontColor=#545B64;dashed=1;" vertex="1" parent="1">
          <mxGeometry x="431" y="191" width="351" height="347" as="geometry" />
        </mxCell>
        <mxCell id="jzL99hfYgjQj-h_XM-RX-64" value="Private subnet" style="points=[[0,0],[0.25,0],[0.5,0],[0.75,0],[1,0],[1,0.25],[1,0.5],[1,0.75],[1,1],[0.75,1],[0.5,1],[0.25,1],[0,1],[0,0.75],[0,0.5],[0,0.25]];outlineConnect=0;gradientColor=none;html=1;whiteSpace=wrap;fontSize=12;fontStyle=0;container=1;pointerEvents=0;collapsible=0;recursiveResize=0;shape=mxgraph.aws4.group;grIcon=mxgraph.aws4.group_security_group;grStroke=0;strokeColor=#00A4A6;fillColor=#E6F6F7;verticalAlign=top;align=left;spacingLeft=30;fontColor=#147EBA;dashed=0;" vertex="1" parent="1">
          <mxGeometry x="583" y="209" width="197" height="150" as="geometry" />
        </mxCell>
        <mxCell id="jzL99hfYgjQj-h_XM-RX-65" value="" style="sketch=0;points=[[0,0,0],[0.25,0,0],[0.5,0,0],[0.75,0,0],[1,0,0],[0,1,0],[0.25,1,0],[0.5,1,0],[0.75,1,0],[1,1,0],[0,0.25,0],[0,0.5,0],[0,0.75,0],[1,0.25,0],[1,0.5,0],[1,0.75,0]];outlineConnect=0;fontColor=#232F3E;fillColor=#ED7100;strokeColor=#ffffff;dashed=0;verticalLabelPosition=bottom;verticalAlign=top;align=center;html=1;fontSize=12;fontStyle=0;aspect=fixed;shape=mxgraph.aws4.resourceIcon;resIcon=mxgraph.aws4.ec2;" vertex="1" parent="jzL99hfYgjQj-h_XM-RX-64">
          <mxGeometry x="106" y="45.5" width="78" height="78" as="geometry" />
        </mxCell>
        <mxCell id="jzL99hfYgjQj-h_XM-RX-66" value="" style="sketch=0;outlineConnect=0;fontColor=#232F3E;gradientColor=none;fillColor=#ED7100;strokeColor=none;dashed=0;verticalLabelPosition=bottom;verticalAlign=top;align=center;html=1;fontSize=12;fontStyle=0;aspect=fixed;pointerEvents=1;shape=mxgraph.aws4.auto_scaling2;" vertex="1" parent="jzL99hfYgjQj-h_XM-RX-64">
          <mxGeometry x="40" y="60.5" width="48" height="48" as="geometry" />
        </mxCell>
        <mxCell id="jzL99hfYgjQj-h_XM-RX-67" value="AutoScaling" style="text;html=1;align=center;verticalAlign=middle;resizable=0;points=[];autosize=1;strokeColor=none;fillColor=none;" vertex="1" parent="jzL99hfYgjQj-h_XM-RX-64">
          <mxGeometry x="19" y="103" width="83" height="26" as="geometry" />
        </mxCell>
        <mxCell id="jzL99hfYgjQj-h_XM-RX-68" value="" style="rounded=1;arcSize=10;dashed=1;strokeColor=#ff0000;fillColor=none;gradientColor=none;dashPattern=8 4;strokeWidth=2;" vertex="1" parent="jzL99hfYgjQj-h_XM-RX-64">
          <mxGeometry x="99" y="35" width="92" height="107" as="geometry" />
        </mxCell>
        <mxCell id="jzL99hfYgjQj-h_XM-RX-69" value="" style="sketch=0;outlineConnect=0;fontColor=#232F3E;gradientColor=none;fillColor=#8C4FFF;strokeColor=none;dashed=0;verticalLabelPosition=bottom;verticalAlign=top;align=center;html=1;fontSize=12;fontStyle=0;aspect=fixed;pointerEvents=1;shape=mxgraph.aws4.network_access_control_list;" vertex="1" parent="jzL99hfYgjQj-h_XM-RX-64">
          <mxGeometry x="8" y="31" width="41" height="41" as="geometry" />
        </mxCell>
        <mxCell id="jzL99hfYgjQj-h_XM-RX-70" value="Web App" style="text;html=1;align=center;verticalAlign=middle;resizable=0;points=[];autosize=1;strokeColor=none;fillColor=none;" vertex="1" parent="jzL99hfYgjQj-h_XM-RX-64">
          <mxGeometry x="109" y="119" width="67" height="26" as="geometry" />
        </mxCell>
        <mxCell id="jzL99hfYgjQj-h_XM-RX-71" value="Private subnet" style="points=[[0,0],[0.25,0],[0.5,0],[0.75,0],[1,0],[1,0.25],[1,0.5],[1,0.75],[1,1],[0.75,1],[0.5,1],[0.25,1],[0,1],[0,0.75],[0,0.5],[0,0.25]];outlineConnect=0;gradientColor=none;html=1;whiteSpace=wrap;fontSize=12;fontStyle=0;container=1;pointerEvents=0;collapsible=0;recursiveResize=0;shape=mxgraph.aws4.group;grIcon=mxgraph.aws4.group_security_group;grStroke=0;strokeColor=#00A4A6;fillColor=#E6F6F7;verticalAlign=top;align=left;spacingLeft=30;fontColor=#147EBA;dashed=0;" vertex="1" parent="1">
          <mxGeometry x="484" y="376.5" width="182.75" height="147" as="geometry" />
        </mxCell>
        <mxCell id="jzL99hfYgjQj-h_XM-RX-72" value="Aurora MySQL" style="text;html=1;align=center;verticalAlign=middle;resizable=0;points=[];autosize=1;strokeColor=none;fillColor=none;" vertex="1" parent="jzL99hfYgjQj-h_XM-RX-71">
          <mxGeometry x="83" y="111" width="95" height="26" as="geometry" />
        </mxCell>
        <mxCell id="jzL99hfYgjQj-h_XM-RX-73" value="" style="sketch=0;points=[[0,0,0],[0.25,0,0],[0.5,0,0],[0.75,0,0],[1,0,0],[0,1,0],[0.25,1,0],[0.5,1,0],[0.75,1,0],[1,1,0],[0,0.25,0],[0,0.5,0],[0,0.75,0],[1,0.25,0],[1,0.5,0],[1,0.75,0]];outlineConnect=0;fontColor=#232F3E;fillColor=#C925D1;strokeColor=#ffffff;dashed=0;verticalLabelPosition=bottom;verticalAlign=top;align=center;html=1;fontSize=12;fontStyle=0;aspect=fixed;shape=mxgraph.aws4.resourceIcon;resIcon=mxgraph.aws4.aurora;" vertex="1" parent="jzL99hfYgjQj-h_XM-RX-71">
          <mxGeometry x="90" y="37" width="78" height="78" as="geometry" />
        </mxCell>
        <mxCell id="jzL99hfYgjQj-h_XM-RX-74" value="" style="rounded=1;arcSize=10;dashed=1;strokeColor=light-dark(#ff8000, #ff9090);fillColor=none;gradientColor=none;dashPattern=8 4;strokeWidth=2;" vertex="1" parent="jzL99hfYgjQj-h_XM-RX-71">
          <mxGeometry x="83" y="30" width="92" height="107" as="geometry" />
        </mxCell>
        <mxCell id="jzL99hfYgjQj-h_XM-RX-75" value="" style="sketch=0;outlineConnect=0;fontColor=#232F3E;gradientColor=none;fillColor=#8C4FFF;strokeColor=none;dashed=0;verticalLabelPosition=bottom;verticalAlign=top;align=center;html=1;fontSize=12;fontStyle=0;aspect=fixed;pointerEvents=1;shape=mxgraph.aws4.network_access_control_list;" vertex="1" parent="jzL99hfYgjQj-h_XM-RX-71">
          <mxGeometry x="21" y="96" width="41" height="41" as="geometry" />
        </mxCell>
        <mxCell id="jzL99hfYgjQj-h_XM-RX-76" value="Public subnet" style="points=[[0,0],[0.25,0],[0.5,0],[0.75,0],[1,0],[1,0.25],[1,0.5],[1,0.75],[1,1],[0.75,1],[0.5,1],[0.25,1],[0,1],[0,0.75],[0,0.5],[0,0.25]];outlineConnect=0;gradientColor=none;html=1;whiteSpace=wrap;fontSize=12;fontStyle=0;container=1;pointerEvents=0;collapsible=0;recursiveResize=0;shape=mxgraph.aws4.group;grIcon=mxgraph.aws4.group_security_group;grStroke=0;strokeColor=#7AA116;fillColor=#F2F6E8;verticalAlign=top;align=left;spacingLeft=30;fontColor=#248814;dashed=0;" vertex="1" parent="1">
          <mxGeometry x="443" y="233.5" width="112" height="119" as="geometry" />
        </mxCell>
        <mxCell id="jzL99hfYgjQj-h_XM-RX-77" value="" style="sketch=0;outlineConnect=0;fontColor=#232F3E;gradientColor=none;fillColor=#8C4FFF;strokeColor=none;dashed=0;verticalLabelPosition=bottom;verticalAlign=top;align=center;html=1;fontSize=12;fontStyle=0;aspect=fixed;pointerEvents=1;shape=mxgraph.aws4.nat_gateway;" vertex="1" parent="jzL99hfYgjQj-h_XM-RX-76">
          <mxGeometry x="56" y="55" width="61" height="61" as="geometry" />
        </mxCell>
        <mxCell id="jzL99hfYgjQj-h_XM-RX-78" value="" style="sketch=0;outlineConnect=0;fontColor=#232F3E;gradientColor=none;fillColor=#8C4FFF;strokeColor=none;dashed=0;verticalLabelPosition=bottom;verticalAlign=top;align=center;html=1;fontSize=12;fontStyle=0;aspect=fixed;pointerEvents=1;shape=mxgraph.aws4.network_access_control_list;" vertex="1" parent="jzL99hfYgjQj-h_XM-RX-76">
          <mxGeometry x="6" y="35" width="41" height="41" as="geometry" />
        </mxCell>
        <mxCell id="jzL99hfYgjQj-h_XM-RX-79" value="NAT Gateway" style="text;html=1;align=center;verticalAlign=middle;resizable=0;points=[];autosize=1;strokeColor=none;fillColor=none;" vertex="1" parent="jzL99hfYgjQj-h_XM-RX-76">
          <mxGeometry x="40" y="108" width="90" height="26" as="geometry" />
        </mxCell>
        <mxCell id="jzL99hfYgjQj-h_XM-RX-117" value="Availability zone A" style="sketch=0;outlineConnect=0;gradientColor=none;html=1;whiteSpace=wrap;fontSize=12;fontStyle=0;shape=mxgraph.aws4.group;grIcon=mxgraph.aws4.group_availability_zone;strokeColor=#545B64;fillColor=none;verticalAlign=top;align=left;spacingLeft=30;fontColor=#545B64;dashed=1;" vertex="1" parent="1">
          <mxGeometry x="57" y="191" width="351" height="347" as="geometry" />
        </mxCell>
        <mxCell id="jzL99hfYgjQj-h_XM-RX-118" value="Private subnet" style="points=[[0,0],[0.25,0],[0.5,0],[0.75,0],[1,0],[1,0.25],[1,0.5],[1,0.75],[1,1],[0.75,1],[0.5,1],[0.25,1],[0,1],[0,0.75],[0,0.5],[0,0.25]];outlineConnect=0;gradientColor=none;html=1;whiteSpace=wrap;fontSize=12;fontStyle=0;container=1;pointerEvents=0;collapsible=0;recursiveResize=0;shape=mxgraph.aws4.group;grIcon=mxgraph.aws4.group_security_group;grStroke=0;strokeColor=#00A4A6;fillColor=#E6F6F7;verticalAlign=top;align=left;spacingLeft=30;fontColor=#147EBA;dashed=0;" vertex="1" parent="1">
          <mxGeometry x="209" y="209" width="197" height="150" as="geometry" />
        </mxCell>
        <mxCell id="jzL99hfYgjQj-h_XM-RX-119" value="" style="sketch=0;points=[[0,0,0],[0.25,0,0],[0.5,0,0],[0.75,0,0],[1,0,0],[0,1,0],[0.25,1,0],[0.5,1,0],[0.75,1,0],[1,1,0],[0,0.25,0],[0,0.5,0],[0,0.75,0],[1,0.25,0],[1,0.5,0],[1,0.75,0]];outlineConnect=0;fontColor=#232F3E;fillColor=#ED7100;strokeColor=#ffffff;dashed=0;verticalLabelPosition=bottom;verticalAlign=top;align=center;html=1;fontSize=12;fontStyle=0;aspect=fixed;shape=mxgraph.aws4.resourceIcon;resIcon=mxgraph.aws4.ec2;" vertex="1" parent="jzL99hfYgjQj-h_XM-RX-118">
          <mxGeometry x="106" y="45.5" width="78" height="78" as="geometry" />
        </mxCell>
        <mxCell id="jzL99hfYgjQj-h_XM-RX-120" value="" style="sketch=0;outlineConnect=0;fontColor=#232F3E;gradientColor=none;fillColor=#ED7100;strokeColor=none;dashed=0;verticalLabelPosition=bottom;verticalAlign=top;align=center;html=1;fontSize=12;fontStyle=0;aspect=fixed;pointerEvents=1;shape=mxgraph.aws4.auto_scaling2;" vertex="1" parent="jzL99hfYgjQj-h_XM-RX-118">
          <mxGeometry x="40" y="60.5" width="48" height="48" as="geometry" />
        </mxCell>
        <mxCell id="jzL99hfYgjQj-h_XM-RX-121" value="AutoScaling" style="text;html=1;align=center;verticalAlign=middle;resizable=0;points=[];autosize=1;strokeColor=none;fillColor=none;" vertex="1" parent="jzL99hfYgjQj-h_XM-RX-118">
          <mxGeometry x="19" y="103" width="83" height="26" as="geometry" />
        </mxCell>
        <mxCell id="jzL99hfYgjQj-h_XM-RX-122" value="" style="rounded=1;arcSize=10;dashed=1;strokeColor=#ff0000;fillColor=none;gradientColor=none;dashPattern=8 4;strokeWidth=2;" vertex="1" parent="jzL99hfYgjQj-h_XM-RX-118">
          <mxGeometry x="99" y="35" width="92" height="107" as="geometry" />
        </mxCell>
        <mxCell id="jzL99hfYgjQj-h_XM-RX-123" value="" style="sketch=0;outlineConnect=0;fontColor=#232F3E;gradientColor=none;fillColor=#8C4FFF;strokeColor=none;dashed=0;verticalLabelPosition=bottom;verticalAlign=top;align=center;html=1;fontSize=12;fontStyle=0;aspect=fixed;pointerEvents=1;shape=mxgraph.aws4.network_access_control_list;" vertex="1" parent="jzL99hfYgjQj-h_XM-RX-118">
          <mxGeometry x="8" y="31" width="41" height="41" as="geometry" />
        </mxCell>
        <mxCell id="jzL99hfYgjQj-h_XM-RX-124" value="Web App" style="text;html=1;align=center;verticalAlign=middle;resizable=0;points=[];autosize=1;strokeColor=none;fillColor=none;" vertex="1" parent="jzL99hfYgjQj-h_XM-RX-118">
          <mxGeometry x="109" y="119" width="67" height="26" as="geometry" />
        </mxCell>
        <mxCell id="jzL99hfYgjQj-h_XM-RX-125" value="Private subnet" style="points=[[0,0],[0.25,0],[0.5,0],[0.75,0],[1,0],[1,0.25],[1,0.5],[1,0.75],[1,1],[0.75,1],[0.5,1],[0.25,1],[0,1],[0,0.75],[0,0.5],[0,0.25]];outlineConnect=0;gradientColor=none;html=1;whiteSpace=wrap;fontSize=12;fontStyle=0;container=1;pointerEvents=0;collapsible=0;recursiveResize=0;shape=mxgraph.aws4.group;grIcon=mxgraph.aws4.group_security_group;grStroke=0;strokeColor=#00A4A6;fillColor=#E6F6F7;verticalAlign=top;align=left;spacingLeft=30;fontColor=#147EBA;dashed=0;" vertex="1" parent="1">
          <mxGeometry x="110" y="376.5" width="182.75" height="147" as="geometry" />
        </mxCell>
        <mxCell id="jzL99hfYgjQj-h_XM-RX-126" value="Aurora MySQL" style="text;html=1;align=center;verticalAlign=middle;resizable=0;points=[];autosize=1;strokeColor=none;fillColor=none;" vertex="1" parent="jzL99hfYgjQj-h_XM-RX-125">
          <mxGeometry x="83" y="111" width="95" height="26" as="geometry" />
        </mxCell>
        <mxCell id="jzL99hfYgjQj-h_XM-RX-127" value="" style="sketch=0;points=[[0,0,0],[0.25,0,0],[0.5,0,0],[0.75,0,0],[1,0,0],[0,1,0],[0.25,1,0],[0.5,1,0],[0.75,1,0],[1,1,0],[0,0.25,0],[0,0.5,0],[0,0.75,0],[1,0.25,0],[1,0.5,0],[1,0.75,0]];outlineConnect=0;fontColor=#232F3E;fillColor=#C925D1;strokeColor=#ffffff;dashed=0;verticalLabelPosition=bottom;verticalAlign=top;align=center;html=1;fontSize=12;fontStyle=0;aspect=fixed;shape=mxgraph.aws4.resourceIcon;resIcon=mxgraph.aws4.aurora;" vertex="1" parent="jzL99hfYgjQj-h_XM-RX-125">
          <mxGeometry x="90" y="37" width="78" height="78" as="geometry" />
        </mxCell>
        <mxCell id="jzL99hfYgjQj-h_XM-RX-128" value="" style="rounded=1;arcSize=10;dashed=1;strokeColor=light-dark(#ff8000, #ff9090);fillColor=none;gradientColor=none;dashPattern=8 4;strokeWidth=2;" vertex="1" parent="jzL99hfYgjQj-h_XM-RX-125">
          <mxGeometry x="83" y="30" width="92" height="107" as="geometry" />
        </mxCell>
        <mxCell id="jzL99hfYgjQj-h_XM-RX-129" value="" style="sketch=0;outlineConnect=0;fontColor=#232F3E;gradientColor=none;fillColor=#8C4FFF;strokeColor=none;dashed=0;verticalLabelPosition=bottom;verticalAlign=top;align=center;html=1;fontSize=12;fontStyle=0;aspect=fixed;pointerEvents=1;shape=mxgraph.aws4.network_access_control_list;" vertex="1" parent="jzL99hfYgjQj-h_XM-RX-125">
          <mxGeometry x="21" y="96" width="41" height="41" as="geometry" />
        </mxCell>
        <mxCell id="jzL99hfYgjQj-h_XM-RX-130" value="Public subnet" style="points=[[0,0],[0.25,0],[0.5,0],[0.75,0],[1,0],[1,0.25],[1,0.5],[1,0.75],[1,1],[0.75,1],[0.5,1],[0.25,1],[0,1],[0,0.75],[0,0.5],[0,0.25]];outlineConnect=0;gradientColor=none;html=1;whiteSpace=wrap;fontSize=12;fontStyle=0;container=1;pointerEvents=0;collapsible=0;recursiveResize=0;shape=mxgraph.aws4.group;grIcon=mxgraph.aws4.group_security_group;grStroke=0;strokeColor=#7AA116;fillColor=#F2F6E8;verticalAlign=top;align=left;spacingLeft=30;fontColor=#248814;dashed=0;" vertex="1" parent="1">
          <mxGeometry x="69" y="233.5" width="112" height="119" as="geometry" />
        </mxCell>
        <mxCell id="jzL99hfYgjQj-h_XM-RX-131" value="" style="sketch=0;outlineConnect=0;fontColor=#232F3E;gradientColor=none;fillColor=#8C4FFF;strokeColor=none;dashed=0;verticalLabelPosition=bottom;verticalAlign=top;align=center;html=1;fontSize=12;fontStyle=0;aspect=fixed;pointerEvents=1;shape=mxgraph.aws4.nat_gateway;" vertex="1" parent="jzL99hfYgjQj-h_XM-RX-130">
          <mxGeometry x="56" y="55" width="61" height="61" as="geometry" />
        </mxCell>
        <mxCell id="jzL99hfYgjQj-h_XM-RX-132" value="" style="sketch=0;outlineConnect=0;fontColor=#232F3E;gradientColor=none;fillColor=#8C4FFF;strokeColor=none;dashed=0;verticalLabelPosition=bottom;verticalAlign=top;align=center;html=1;fontSize=12;fontStyle=0;aspect=fixed;pointerEvents=1;shape=mxgraph.aws4.network_access_control_list;" vertex="1" parent="jzL99hfYgjQj-h_XM-RX-130">
          <mxGeometry x="6" y="35" width="41" height="41" as="geometry" />
        </mxCell>
        <mxCell id="jzL99hfYgjQj-h_XM-RX-133" value="NAT Gateway" style="text;html=1;align=center;verticalAlign=middle;resizable=0;points=[];autosize=1;strokeColor=none;fillColor=none;" vertex="1" parent="jzL99hfYgjQj-h_XM-RX-130">
          <mxGeometry x="40" y="108" width="90" height="26" as="geometry" />
        </mxCell>
        <mxCell id="jzL99hfYgjQj-h_XM-RX-134" value="VPC" style="points=[[0,0],[0.25,0],[0.5,0],[0.75,0],[1,0],[1,0.25],[1,0.5],[1,0.75],[1,1],[0.75,1],[0.5,1],[0.25,1],[0,1],[0,0.75],[0,0.5],[0,0.25]];outlineConnect=0;gradientColor=none;html=1;whiteSpace=wrap;fontSize=12;fontStyle=0;container=1;pointerEvents=0;collapsible=0;recursiveResize=0;shape=mxgraph.aws4.group;grIcon=mxgraph.aws4.group_vpc2;strokeColor=#8C4FFF;fillColor=none;verticalAlign=top;align=left;spacingLeft=30;fontColor=#AAB7B8;dashed=0;" vertex="1" parent="1">
          <mxGeometry x="26" y="165" width="778" height="403" as="geometry" />
        </mxCell>
        <mxCell id="jzL99hfYgjQj-h_XM-RX-135" value="" style="sketch=0;outlineConnect=0;fontColor=#232F3E;gradientColor=none;fillColor=#8C4FFF;strokeColor=none;dashed=0;verticalLabelPosition=bottom;verticalAlign=top;align=center;html=1;fontSize=12;fontStyle=0;aspect=fixed;pointerEvents=1;shape=mxgraph.aws4.internet_gateway;" vertex="1" parent="1">
          <mxGeometry x="-2.5" y="278.5" width="59.5" height="59.5" as="geometry" />
        </mxCell>
      </root>
    </mxGraphModel>
  </diagram>
</mxfile>
